<svg xmlns="http://www.w3.org/2000/svg" width="143" height="143" version="1"><g fill="#3d6cb0"><path d="M52.7 2C27.9 8.6 7.7 29.3 1.6 54.1.6 58 0 64.9 0 71.5c0 12.7 1.7 20.9 6.6 31.2 8.9 18.8 27.3 33.8 47.5 38.7 8.6 2.1 26.2 2.1 34.8 0 20.2-4.9 38.6-19.9 47.5-38.7 4.9-10.3 6.6-18.5 6.6-31.2 0-6.6-.6-13.5-1.6-17.4-6.2-25.2-27.3-46.3-52.5-52.5-9.1-2.2-27.3-2-36.2.4zm33.6 1.6c24.5 5.5 43.6 23.2 51.9 47.9 1.9 5.9 2.3 9 2.3 20 0 10.9-.4 14.1-2.3 19.9-7.8 23.2-23.6 39.1-46.7 46.8-5.9 1.9-9 2.3-20 2.3s-14.1-.4-20-2.3c-23.1-7.7-38.9-23.6-46.7-46.8-1.9-5.8-2.3-9-2.3-19.9 0-14.3 1.6-21.3 7.6-32.6 14.5-27.2 46.4-42 76.2-35.3zM55.2 9C32.6 14.9 14.8 32.9 9 55.6.2 90 21.1 125.2 55.6 134c34.4 8.8 69.6-12.1 78.4-46.6C142.8 53 121.9 17.8 87.4 9 77.5 6.4 65 6.5 55.2 9zm1.9 33.5c2.7 4.9 4.9 10.1 4.9 11.4 0 1.4-1.2 3.7-2.6 5.2-2 2.1-2.5 3.4-2 5.3 1.4 5.7 16.5 20.8 22.2 22.2 2 .5 3.2 0 5.8-2.5 1.7-1.7 4.1-3.1 5.1-3.1 1.1 0 6.1 2.4 11 5.3 11.8 7 11.9 7.7 2.3 16.7-6.7 6.3-7.7 6.9-11.6 7-10.6 0-23.9-7.5-37.7-21.4-13.9-14.1-20.4-25.8-20.5-37 0-4.8.2-5.2 6.9-11.9 9.1-9.1 9.9-8.9 16.2 2.8z"/></g></svg>