<svg xmlns="http://www.w3.org/2000/svg" width="153" height="148" version="1"><g fill="#3d6cb0"><path d="M58.5 1.5C31.9 7.3 8.6 29.5 2 55.6-.7 66.1-.7 81.9 2 92.4c6.7 26.3 30 48.5 56.9 54.2 8.5 1.8 26.7 1.8 35.2 0 26.9-5.7 50.2-27.9 56.9-54.2 2.7-10.5 2.7-26.3 0-36.8-6.7-26.3-30-48.5-56.9-54.2-8.2-1.7-27.6-1.7-35.6.1zm33.3 2.1c18.4 3.8 36.6 15.7 46.8 30.7 13.9 20.5 16.2 46.8 6 68.4-4.5 9.3-7.3 13.5-14.4 20.7-29.2 30-78.2 30-107.4 0-7.1-7.2-9.9-11.4-14.4-20.7-8.5-17.9-8.5-39.5 0-57.4 4.5-9.3 7.3-13.5 14.4-20.7 17.7-18.2 43.9-26.2 69-21zM64.8 8C49.7 10.7 37.9 16.9 27 27.9 13.5 41.5 7.7 55.4 7.7 74s5.8 32.5 19.3 46.1c9.4 9.4 17.1 14 30 18 10.7 3.4 28.3 3.4 39 0 12.9-4 20.6-8.6 30-18 13.5-13.6 19.3-27.4 19.3-46.1 0-18.7-5.8-32.5-19.3-46.1-9.3-9.3-17.1-14-29.5-17.9-7.9-2.4-24.1-3.4-31.7-2zm20.8 30.4c5.6 2.6 9.5 7 11.3 12.8l1.2 3.7 8.7.3 8.7.3v56h-78v-56l8.7-.3 8.7-.3 1.2-3.7C58.8 42.7 67.7 36 76.5 36c2.2 0 6.3 1.1 9.1 2.4zM68.3 45c-3 1.8-6.3 6.5-6.3 9 0 .6 5 1 14.5 1S91 54.6 91 54s-.7-2.4-1.5-4.1c-2.3-4.4-7.1-6.9-13-6.9-3.2 0-6.2.7-8.2 2z"/></g></svg>