<svg xmlns="http://www.w3.org/2000/svg" width="464" height="464" version="1"><g fill="#3d6cb0"><path d="M201 1.5c-41.3 5.7-82.3 23.2-114.5 48.9-9.6 7.7-27.4 25.4-35.2 35.1-27.2 33.7-45.6 77.4-50.2 119.7-1.4 12.5-1.4 41.1 0 53.6 4.6 41.7 22.8 85.6 49.4 118.7 7.6 9.6 25.3 27.3 35 35.2 26.6 21.6 61.3 38.4 94.1 45.8 18.4 4.1 31.1 5.5 52.4 5.5 38.6 0 68.7-6.9 102.5-23.5 24-11.7 41.5-24.2 60.9-43.3 19.6-19.3 33.1-38.1 45.1-62.7C457.1 300.7 464 270.6 464 232s-6.9-68.7-23.5-102.5c-22.9-46.8-59.2-83.1-106-106C310.8 11.8 287.9 4.9 262 1.4c-13.1-1.7-48-1.7-61 .1zm60 2.9c77 10.3 143.3 57.9 177 127.1 10.2 20.8 16.2 39.5 20.7 64 2.6 14.4 2.6 58.6 0 73-4.5 24.5-10.5 43.2-20.7 64-22.2 45.7-59.4 82.9-105.4 105.5-32.3 15.9-63.4 23-100.6 23-37.2 0-68.3-7.1-100.6-23C62 403.9 14.8 338.2 4.4 261c-1.8-13.5-1.8-44.5 0-58 3.4-25.3 10.7-49.4 21.6-71.6C60 62.3 125.6 15 202 4.5c12.9-1.8 45.9-1.8 59-.1zM202.7 31.6c-47.6 6.9-94.3 32.8-124.8 69.2-25.3 30.2-41.1 65.3-46.3 103.1-2.1 14.6-2.1 42.6 0 57.2C44 350 115 421 203.9 433.4c14.6 2.1 42.6 2.1 57.2 0 71.2-9.9 132.5-57.8 159.5-124.6 10.2-25.3 14.4-47.6 14.4-76.3 0-28.7-4.2-51-14.4-76.3-27-66.8-88.3-114.7-159.5-124.6-13.9-2-44.7-1.9-58.4 0z"/></g></svg>