<svg xmlns="http://www.w3.org/2000/svg" width="148" height="143" version="1"><g fill="#3d6cb0"><path d="M54.2 2C29.1 8.6 8.9 28.3 2.1 53c-2.9 10.3-2.9 26.7 0 37 6.9 24.9 27.1 44.5 52.5 51 10.6 2.7 28.2 2.7 38.8 0 25.4-6.5 45.6-26.1 52.5-51 2.9-10.3 2.9-26.7 0-37C139 28.1 118.8 8.5 93.4 2 83-.7 64.5-.7 54.2 2zm42.3 3.4c35.4 12 56.3 47.8 47.5 82-5.9 23.3-23.6 42-47.5 50.3-7.3 2.5-9.2 2.7-22.5 2.7s-15.2-.2-22.5-2.7c-23.9-8.3-41.6-27-47.5-50.3-9.4-36.7 15.5-75.1 54.5-84 9.9-2.3 28.2-1.3 38 2zM59.4 8.4C23.6 16.6 1.3 49.9 8.5 84.5 13.2 107 31 126 54 133.2c10.8 3.3 29.2 3.3 40 0 21.5-6.7 38.3-23.5 44.6-44.7 2.5-8.2 2.5-25.8 0-34-3.2-10.6-8.5-19.4-16.6-27.6-12.9-13-26.4-18.8-45.5-19.5-7.2-.2-13.1.1-17.1 1zm22.9 34c10.1 4.2 13.8 17.5 7.3 26.1L87 71.8l4.3 2.5c8.7 5.2 14.7 13.8 16.3 23.5l.7 4.2H41.7l.6-4.5c1.3-9 9-19.5 17.7-24l3.2-1.7-2-2.1c-6.1-6.6-5.3-18.8 1.7-24.5 5.1-4.1 13.4-5.4 19.4-2.8z"/></g></svg>