<svg xmlns="http://www.w3.org/2000/svg" width="143" height="143" version="1"><g fill="#3d6cb0"><path d="M52.7 2C27.9 8.6 7.7 29.3 1.6 54.1.6 58 0 64.9 0 71.5c0 12.7 1.7 20.9 6.6 31.2 8.9 18.8 27.3 33.8 47.5 38.7 8.6 2.1 26.2 2.1 34.8 0 20.2-4.9 38.6-19.9 47.5-38.7 4.9-10.3 6.6-18.5 6.6-31.2 0-6.6-.6-13.5-1.6-17.4-6.2-25.2-27.3-46.3-52.5-52.5-9.1-2.2-27.3-2-36.2.4zM92 5c22.6 7.6 38.5 23.6 46.2 46.6 1.9 5.8 2.3 9 2.3 19.9 0 10.9-.4 14.1-2.3 19.9-7.8 23.2-23.6 39.1-46.7 46.8-5.9 1.9-9 2.3-20 2.3s-14.1-.4-20-2.3c-23.1-7.7-38.9-23.6-46.7-46.8-1.9-5.8-2.3-9-2.3-19.9 0-11 .4-14.1 2.3-20 7.7-22.9 24.1-39.4 46.3-46.4 9.2-2.9 10.2-3 22.9-2.6 8.5.2 13.2.9 18 2.5zM55.2 9C32.6 14.9 14.8 32.9 9 55.6.2 90 21.1 125.2 55.6 134c34.4 8.8 69.6-12.1 78.4-46.6C142.8 53 121.9 17.8 87.4 9 77.5 6.4 65 6.5 55.2 9zm29.5 23.4c14.9 7.6 21.1 25.3 14 39.8-1.5 3.2-4.8 7.4-7.1 9.5-2.6 2.3-4.6 5.1-5 6.9-.4 1.7-2.1 4.4-3.7 6-2.8 2.7-3.5 2.9-11.4 2.9s-8.6-.2-11.4-2.9c-1.6-1.6-3.3-4.3-3.7-6-.4-1.8-2.4-4.6-5-6.9C33.5 65.9 41 36.1 64.5 29.9c5.2-1.4 15-.2 20.2 2.5zm-.3 70.7c3.1 2.5 3.4 6.1.6 8.9-1.8 1.8-3.3 2-13.5 2s-11.7-.2-13.5-2c-2.8-2.8-2.5-6.4.6-8.9 2.3-1.8 4.1-2.1 12.9-2.1s10.6.3 12.9 2.1z"/></g></svg>