<svg xmlns="http://www.w3.org/2000/svg" width="148" height="143" version="1"><g fill="#3d6cb0"><path d="M54.2 2C29.1 8.6 8.9 28.3 2.1 53c-2.9 10.3-2.9 26.7 0 37 6.9 24.9 27.1 44.5 52.5 51 10.6 2.7 28.2 2.7 38.8 0 25.4-6.5 45.6-26.1 52.5-51 2.9-10.3 2.9-26.7 0-37C139 28.1 118.8 8.5 93.4 2 83-.7 64.5-.7 54.2 2zm42.3 3.4c35.4 12 56.3 47.8 47.5 82-5.9 23.3-23.6 42-47.5 50.3-7.3 2.5-9.2 2.7-22.5 2.7s-15.2-.2-22.5-2.7c-23.9-8.3-41.6-27-47.5-50.3-9.4-36.7 15.5-75.1 54.5-84 9.9-2.3 28.2-1.3 38 2zM59.4 8.4C23.6 16.6 1.3 49.9 8.5 84.5 13.2 107 31 126 54 133.2c10.8 3.3 29.2 3.3 40 0 21.5-6.7 38.3-23.5 44.6-44.7 2.5-8.2 2.5-25.8 0-34-3.2-10.6-8.5-19.4-16.6-27.6-12.9-13-26.4-18.8-45.5-19.5-7.2-.2-13.1.1-17.1 1zM106.3 40c1.5 1.2 3.1 3.8 3.7 5.8 1.5 5.6 1.3 28.6-.4 32.6C106.9 85 106.8 85 74 85c-32.8 0-32.9 0-35.6-6.6-1.7-4-1.9-27-.4-32.6.6-2 2.2-4.6 3.7-5.8 2.5-1.9 3.9-2 32.3-2s29.8.1 32.3 2zm7.7 57.2c1.9 3.5 3.7 6.6 3.8 7 .2.5-19.5.8-43.8.8-24.3 0-44-.3-43.8-.8.2-.4 1.9-3.5 3.8-7l3.5-6.2h73l3.5 6.2zM43.9 46.7c-.6 1.6-.9 8.6-.7 16.6.3 12.4.5 14 2.2 15.3 2.9 2.1 54.3 2.1 57.2 0 1.7-1.3 1.9-2.9 2.2-15.3.2-8-.1-15-.7-16.6L103 44H45l-1.1 2.7z"/></g></svg>