<svg xmlns="http://www.w3.org/2000/svg" width="25" height="20" xmlns:xlink="http://www.w3.org/1999/xlink"><defs><path id="a" d="M596.6 2539.9h4.03v-1.6c0-.9.72-1.62 1.6-1.62h9.67c.9 0 1.6.72 1.6 1.6v1.62h4.04c.9 0 1.6.72 1.6 1.6v12.9c0 .88-.7 1.6-1.6 1.6H596.6a1.6 1.6 0 0 1-1.6-1.6v-12.9c0-.88.72-1.6 1.6-1.6zm5.04 7.85a5.43 5.43 0 1 0 10.87 0 5.43 5.43 0 0 0-10.86 0zm5.43-3.42a3.42 3.42 0 1 1 0 6.84 3.42 3.42 0 0 1 0-6.84z"/></defs><use fill="#8e8d8d" xlink:href="#a" transform="translate(-595 -2536)"/></svg>