<svg version="1.0" xmlns="http://www.w3.org/2000/svg"
 width="143px" height="143px" viewBox="0 0 143 143"
 preserveAspectRatio="xMidYMid meet">
<g transform="translate(0,143) scale(0.1,-0.1)"
fill="#3d6cb0" stroke="none">
<path d="M527 1410 c-248 -66 -450 -273 -511 -521 -10 -39 -16 -108 -16 -174
0 -127 17 -209 66 -312 89 -188 273 -338 475 -387 86 -21 262 -21 348 0 202
49 386 199 475 387 49 103 66 185 66 312 0 66 -6 135 -16 174 -62 252 -273
463 -525 525 -91 22 -273 20 -362 -4z m336 -16 c245 -55 436 -232 519 -479 19
-59 23 -90 23 -200 0 -109 -4 -141 -23 -199 -78 -232 -236 -391 -467 -468 -59
-19 -90 -23 -200 -23 -110 0 -141 4 -200 23 -231 77 -389 236 -467 468 -19 58
-23 90 -23 199 0 143 16 213 76 326 145 272 464 420 762 353z"/>
<path d="M552 1340 c-226 -59 -404 -239 -462 -466 -88 -344 121 -696 466 -784
344 -88 696 121 784 466 88 344 -121 696 -466 784 -99 26 -224 25 -322 0z m19
-335 c27 -49 49 -101 49 -114 0 -14 -12 -37 -26 -52 -20 -21 -25 -34 -20 -53
14 -57 165 -208 222 -222 20 -5 32 0 58 25 17 17 41 31 51 31 11 0 61 -24 110
-53 118 -70 119 -77 23 -167 -67 -63 -77 -69 -116 -70 -106 0 -239 75 -377
214 -139 141 -204 258 -205 370 0 48 2 52 69 119 91 91 99 89 162 -28z"/>
</g>
</svg>
