<svg version="1.0" xmlns="http://www.w3.org/2000/svg"
 width="153px" height="148px" viewBox="0 0 153 148"
 preserveAspectRatio="xMidYMid meet">
<g transform="translate(0,148) scale(0.1,-0.1)"
fill="#3d6cb0" stroke="none">
<path d="M585 1465 c-266 -58 -499 -280 -565 -541 -27 -105 -27 -263 0 -368
67 -263 300 -485 569 -542 85 -18 267 -18 352 0 269 57 502 279 569 542 27
105 27 263 0 368 -67 263 -300 485 -569 542 -82 17 -276 17 -356 -1z m333 -21
c184 -38 366 -157 468 -307 139 -205 162 -468 60 -684 -45 -93 -73 -135 -144
-207 -292 -300 -782 -300 -1074 0 -71 72 -99 114 -144 207 -85 179 -85 395 0
574 45 93 73 135 144 207 177 182 439 262 690 210z"/>
<path d="M648 1400 c-151 -27 -269 -89 -378 -199 -135 -136 -193 -275 -193
-461 0 -186 58 -325 193 -461 94 -94 171 -140 300 -180 107 -34 283 -34 390 0
129 40 206 86 300 180 135 136 193 274 193 461 0 187 -58 325 -193 461 -93 93
-171 140 -295 179 -79 24 -241 34 -317 20z m208 -304 c56 -26 95 -70 113 -128
l12 -37 87 -3 87 -3 0 -280 0 -280 -390 0 -390 0 0 280 0 280 87 3 87 3 12 37
c27 85 116 152 204 152 22 0 63 -11 91 -24z"/>
<path d="M683 1030 c-30 -18 -63 -65 -63 -90 0 -6 50 -10 145 -10 95 0 145 4
145 10 0 6 -7 24 -15 41 -23 44 -71 69 -130 69 -32 0 -62 -7 -82 -20z"/>
</g>
</svg>
