<svg version="1.0" xmlns="http://www.w3.org/2000/svg"
 width="148px" height="143px" viewBox="0 0 148 143"
 preserveAspectRatio="xMidYMid meet">
<g transform="translate(0,143) scale(0.1,-0.1)"
fill="#3d6cb0" stroke="none">
<path d="M542 1410 c-251 -66 -453 -263 -521 -510 -29 -103 -29 -267 0 -370
69 -249 271 -445 525 -510 106 -27 282 -27 388 0 254 65 456 261 525 510 29
103 29 267 0 370 -69 249 -271 445 -525 510 -104 27 -289 27 -392 0z m423 -34
c354 -120 563 -478 475 -820 -59 -233 -236 -420 -475 -503 -73 -25 -92 -27
-225 -27 -133 0 -152 2 -225 27 -239 83 -416 270 -475 503 -94 367 155 751
545 840 99 23 282 13 380 -20z"/>
<path d="M594 1346 c-358 -82 -581 -415 -509 -761 47 -225 225 -415 455 -487
108 -33 292 -33 400 0 215 67 383 235 446 447 25 82 25 258 0 340 -32 106 -85
194 -166 276 -129 130 -264 188 -455 195 -72 2 -131 -1 -171 -10z m229 -340
c101 -42 138 -175 73 -261 l-26 -33 43 -25 c87 -52 147 -138 163 -235 l7 -42
-333 0 -333 0 6 45 c13 90 90 195 177 240 l32 17 -20 21 c-61 66 -53 188 17
245 51 41 134 54 194 28z"/>
</g>
</svg>
