<svg version="1.0" xmlns="http://www.w3.org/2000/svg"
 width="143px" height="143px" viewBox="0 0 143 143"
 preserveAspectRatio="xMidYMid meet">
<g transform="translate(0,143) scale(0.1,-0.1)"
fill="#3d6cb0" stroke="none">
<path d="M527 1410 c-248 -66 -450 -273 -511 -521 -10 -39 -16 -108 -16 -174
0 -127 17 -209 66 -312 89 -188 273 -338 475 -387 86 -21 262 -21 348 0 202
49 386 199 475 387 49 103 66 185 66 312 0 66 -6 135 -16 174 -62 252 -273
463 -525 525 -91 22 -273 20 -362 -4z m393 -30 c226 -76 385 -236 462 -466 19
-58 23 -90 23 -199 0 -109 -4 -141 -23 -199 -78 -232 -236 -391 -467 -468 -59
-19 -90 -23 -200 -23 -110 0 -141 4 -200 23 -231 77 -389 236 -467 468 -19 58
-23 90 -23 199 0 110 4 141 23 200 77 229 241 394 463 464 92 29 102 30 229
26 85 -2 132 -9 180 -25z"/>
<path d="M552 1340 c-226 -59 -404 -239 -462 -466 -88 -344 121 -696 466 -784
344 -88 696 121 784 466 88 344 -121 696 -466 784 -99 26 -224 25 -322 0z
m295 -234 c149 -76 211 -253 140 -398 -15 -32 -48 -74 -71 -95 -26 -23 -46
-51 -50 -69 -4 -17 -21 -44 -37 -60 -28 -27 -35 -29 -114 -29 -79 0 -86 2
-114 29 -16 16 -33 43 -37 60 -4 18 -24 46 -50 69 -179 158 -104 456 131 518
52 14 150 2 202 -25z m-3 -707 c31 -25 34 -61 6 -89 -18 -18 -33 -20 -135 -20
-102 0 -117 2 -135 20 -28 28 -25 64 6 89 23 18 41 21 129 21 88 0 106 -3 129
-21z"/>
</g>
</svg>
