<svg version="1.0" xmlns="http://www.w3.org/2000/svg"
 width="148px" height="143px" viewBox="0 0 148 143"
 preserveAspectRatio="xMidYMid meet">
<g transform="translate(0,143) scale(0.1,-0.1)"
fill="#3d6cb0" stroke="none">
<path d="M542 1410 c-251 -66 -453 -263 -521 -510 -29 -103 -29 -267 0 -370
69 -249 271 -445 525 -510 106 -27 282 -27 388 0 254 65 456 261 525 510 29
103 29 267 0 370 -69 249 -271 445 -525 510 -104 27 -289 27 -392 0z m423 -34
c354 -120 563 -478 475 -820 -59 -233 -236 -420 -475 -503 -73 -25 -92 -27
-225 -27 -133 0 -152 2 -225 27 -239 83 -416 270 -475 503 -94 367 155 751
545 840 99 23 282 13 380 -20z"/>
<path d="M594 1346 c-358 -82 -581 -415 -509 -761 47 -225 225 -415 455 -487
108 -33 292 -33 400 0 215 67 383 235 446 447 25 82 25 258 0 340 -32 106 -85
194 -166 276 -129 130 -264 188 -455 195 -72 2 -131 -1 -171 -10z m469 -316
c15 -12 31 -38 37 -58 15 -56 13 -286 -4 -326 -27 -66 -28 -66 -356 -66 -328
0 -329 0 -356 66 -17 40 -19 270 -4 326 6 20 22 46 37 58 25 19 39 20 323 20
284 0 298 -1 323 -20z m77 -572 c19 -35 37 -66 38 -70 2 -5 -195 -8 -438 -8
-243 0 -440 3 -438 8 2 4 19 35 38 70 l35 62 365 0 365 0 35 -62z"/>
<path d="M439 963 c-6 -16 -9 -86 -7 -166 3 -124 5 -140 22 -153 29 -21 543
-21 572 0 17 13 19 29 22 153 2 80 -1 150 -7 166 l-11 27 -290 0 -290 0 -11
-27z"/>
</g>
</svg>
