<svg xmlns="http://www.w3.org/2000/svg" xmlns:xlink="http://www.w3.org/1999/xlink" width="25" height="20" viewBox="0 0 25 20"><defs><path id="7574a" d="M596.61 2539.902h4.024v-1.61c0-.889.72-1.61 1.61-1.61h9.658c.89 0 1.61.721 1.61 1.61v1.61h4.025c.889 0 1.61.721 1.61 1.61v12.878c0 .89-.721 1.61-1.61 1.61H596.61a1.61 1.61 0 0 1-1.61-1.61v-12.878c0-.889.72-1.61 1.61-1.61zm5.03 7.848a5.433 5.433 0 1 0 10.866 0 5.433 5.433 0 0 0-10.866 0zm5.433-3.42a3.42 3.42 0 1 1 0 6.84 3.42 3.42 0 0 1 0-6.84z"/></defs><g><g transform="translate(-595 -2536)"><use fill="#8e8d8d" xlink:href="#7574a"/></g></g></svg>